<svg width="14" height="14" viewBox="0 0 14 14" fill="none" xmlns="http://www.w3.org/2000/svg">
<path d="M4.18 9.3V10.52H8.68V11.4H4.18V14H2.7V11.4H0.6V10.52H2.7V-9.53674e-07H7.94C9.74 -9.53674e-07 11.14 0.406666 12.14 1.22C13.1533 2.02 13.66 3.16 13.66 4.64C13.66 6.13333 13.1533 7.28667 12.14 8.1C11.14 8.9 9.74 9.3 7.94 9.3H4.18ZM4.18 1.28V8.04H7.96C9.32 8.04 10.36 7.74667 11.08 7.16C11.8133 6.57333 12.18 5.74 12.18 4.66C12.18 3.58 11.8133 2.74667 11.08 2.16C10.36 1.57333 9.32 1.28 7.96 1.28H4.18Z" fill="white"/>
</svg>
